#N canvas 409 50 678 591 10;
#X msg 69 340 1;
#X obj 69 373 readsf~ 2;
#X obj 69 129 bng 15 250 50 0 empty empty empty 17 7 0 10 -262144 -1
-1;
#X obj 69 103 t b b;
#X msg 69 291 open \$1-\$2.wav;
#X obj 69 268 list append;
#X obj 69 222 t b f;
#X obj 69 313 t b a;
#X obj 69 460 *~;
#X obj 94 460 *~;
#X obj 398 144 != 0;
#X obj 398 101 line;
#X obj 398 122 t f f;
#X obj 109 428 lop~ 2;
#N canvas 0 22 450 300 switch~ 0;
#X restore 398 186 pd switch~;
#X obj 398 79 pack 0 1000;
#X obj 69 246 symbol \$3;
#X obj 109 406 r \$1-\$4-vol;
#X obj 69 520 throw~ \$5-L;
#X obj 99 540 throw~ \$5-R;
#X obj 398 33 r \$1-\$4;
#X obj 434 144 s \$1-\$4-vol;
#X obj 99 493 *~ 3;
#X obj 69 493 *~ 3;
#X obj 68 58 mod 16;
#X obj 68 36 r \$1-tick;
#X obj 69 80 sel 8;
#X obj 97 154 + 1;
#X obj 69 154 f 0;
#X obj 69 198 + 1;
#X obj 69 177 mod 7;
#X connect 0 0 1 0;
#X connect 1 0 8 0;
#X connect 1 1 9 0;
#X connect 2 0 28 0;
#X connect 3 0 2 0;
#X connect 4 0 7 0;
#X connect 5 0 4 0;
#X connect 6 0 16 0;
#X connect 6 1 5 1;
#X connect 7 0 0 0;
#X connect 7 1 1 0;
#X connect 8 0 23 0;
#X connect 9 0 22 0;
#X connect 11 0 12 0;
#X connect 12 0 10 0;
#X connect 12 1 21 0;
#X connect 13 0 9 1;
#X connect 13 0 8 1;
#X connect 15 0 11 0;
#X connect 16 0 5 0;
#X connect 17 0 13 0;
#X connect 20 0 15 0;
#X connect 22 0 19 0;
#X connect 23 0 18 0;
#X connect 24 0 26 0;
#X connect 25 0 24 0;
#X connect 26 0 3 0;
#X connect 27 0 28 1;
#X connect 28 0 27 0;
#X connect 28 0 30 0;
#X connect 29 0 6 0;
#X connect 30 0 29 0;
