#N canvas 409 50 678 591 10;
#X msg 69 340 1;
#X obj 69 373 readsf~ 2;
#X obj 69 126 bng 15 250 50 0 empty empty empty 17 7 0 10 -262144 -1
-1;
#X obj 69 98 t b b;
#X obj 69 200 + 1;
#X obj 69 70 sel 0;
#X msg 69 291 open \$1-\$2.wav;
#X obj 69 268 list append;
#X obj 69 222 t b f;
#X obj 69 313 t b a;
#X obj 69 460 *~;
#X obj 94 460 *~;
#X obj 398 144 != 0;
#X obj 398 101 line;
#X obj 398 122 t f f;
#X obj 109 428 lop~ 2;
#N canvas 0 22 450 300 switch~ 0;
#X restore 398 186 pd switch~;
#X obj 398 79 pack 0 1000;
#X obj 69 246 symbol \$3;
#X obj 109 406 r \$1-\$4-vol;
#X obj 69 490 throw~ \$5-L;
#X obj 94 510 throw~ \$5-R;
#X obj 398 33 r \$1-\$4;
#X obj 434 144 s \$1-\$4-vol;
#X obj 167 22 random 3;
#X obj 167 44 sel 0 1 2;
#X msg 167 66 8;
#X obj 69 27 r \$1-money-tick;
#X obj 69 164 random 7;
#X msg 197 66 12;
#X obj 69 47 mod 8;
#X connect 0 0 1 0;
#X connect 1 0 10 0;
#X connect 1 1 11 0;
#X connect 2 0 28 0;
#X connect 3 0 2 0;
#X connect 3 1 24 0;
#X connect 4 0 8 0;
#X connect 5 0 3 0;
#X connect 6 0 9 0;
#X connect 7 0 6 0;
#X connect 8 0 18 0;
#X connect 8 1 7 1;
#X connect 9 0 0 0;
#X connect 9 1 1 0;
#X connect 10 0 20 0;
#X connect 11 0 21 0;
#X connect 13 0 14 0;
#X connect 14 0 12 0;
#X connect 14 1 23 0;
#X connect 15 0 11 1;
#X connect 15 0 10 1;
#X connect 17 0 13 0;
#X connect 18 0 7 0;
#X connect 19 0 15 0;
#X connect 22 0 17 0;
#X connect 24 0 25 0;
#X connect 25 0 26 0;
#X connect 25 1 29 0;
#X connect 27 0 30 0;
#X connect 28 0 4 0;
#X connect 30 0 5 0;
